<?xml version="1.0" encoding="UTF-8"?>
<svg width="209px" height="226px" viewBox="0 0 209 226" version="1.1" xmlns="http://www.w3.org/2000/svg" xmlns:xlink="http://www.w3.org/1999/xlink">
    <!-- Generator: Sketch 52.6 (67491) - http://www.bohemiancoding.com/sketch -->
    <title>Logo</title>
    <desc>Created with Sketch.</desc>
    <g id="Page-1" stroke="none" stroke-width="1" fill="none" fill-rule="evenodd" opacity="0.5">
        <g id="VisitCard-Copy" transform="translate(-815.000000, -48.000000)">
            <g id="visit-card" transform="translate(0.000000, -14.000000)">
                <g id="Logo" transform="translate(819.000000, 67.000000)">
                    <path d="M137.509751,131.017203 L180.509751,131.017203 L180.509751,133.017203 L137.509751,133.017203 L137.509751,131.017203 Z M140.628579,120.050303 L183.628579,120.050303 L183.628579,122.050303 L140.628579,122.050303 L140.628579,120.050303 Z M122.678119,140.31704 L186.678119,140.31704 L186.678119,142.31704 L122.678119,142.31704 L122.678119,140.31704 Z M158.49255,107.772279 L178.49255,107.772279 L178.49255,109.772279 L158.49255,109.772279 L158.49255,107.772279 Z M161.433407,99.0343522 L181.433407,99.0343522 L181.433407,101.034352 L161.433407,101.034352 L161.433407,99.0343522 Z M155.859018,180.560552 L183.859018,180.560552 L183.859018,182.560552 L155.859018,182.560552 L155.859018,180.560552 Z M166.459452,189.083178 L184.459452,189.083178 L184.459452,191.083178 L166.459452,191.083178 L166.459452,189.083178 Z M141.72782,171.307379 L179.72782,171.307379 L179.72782,173.307379 L141.72782,173.307379 L141.72782,171.307379 Z M131.945346,161.848237 L182.945346,161.848237 L182.945346,163.848237 L131.945346,163.848237 L131.945346,161.848237 Z M120.486475,150.909334 L184.486475,150.909334 L184.486475,152.909334 L120.486475,152.909334 L120.486475,150.909334 Z" id="Rectangle-Copy-6" fill="#000000" transform="translate(153.582297, 145.058765) rotate(22.000000) translate(-153.582297, -145.058765) "></path>
                    <path d="M102.821728,0.418594665 C102.93388,0.297136133 103.022617,0.269075986 103.08794,0.334414225 C107.209233,4.45667136 111.199873,8.43400334 115.059993,12.2685923 L194.700139,89.382098 C197.073355,91.642187 198.787363,93.293918 199.8437,94.3624763 L201.486005,95.9526776 L162.153348,216.923923 L159.372874,216.191824 C159.360801,216.220806 159.340866,216.235296 159.31307,216.235296 C159.287367,216.235296 159.27102,216.210999 159.263767,216.163096 L20.7420851,179.69035 L19.7300081,175.987957 C17.1635431,168.841763 12.250609,150.869209 4.9912056,122.070295 L5.68434189e-14,103.811407 L59.9168621,43.0624164 C82.4813125,19.7888203 96.0095626,6.07268928 100.501632,1.91400348 L102.389418,0 L102.821728,0.418594665 Z M108.598248,126.106853 L73.3719886,96.2672862 C65.9266933,108.770983 59.2812469,119.866305 53.43563,129.553287 L23.7603783,180.177788 L156.26813,214.882736 L117.218848,133.643728 L108.598248,126.106853 Z M102.138525,1.64084856 C102.2612,0.918177226 102.265162,0.556841558 102.150409,0.556841558 C102.028531,0.556841558 101.478938,1.00922887 100.501632,1.91400348 L59.9168621,43.0624164 C44.4154009,59.0510509 24.649279,79.5503582 0.61851593,104.560318 C2.1600845,110.784569 3.61764772,116.621228 4.9912056,122.070295 L19.7300081,175.987957 C20.577036,178.346465 21.1684764,179.525718 21.5043293,179.525718 C22.6879281,179.525718 33.331695,162.868241 53.43563,129.553287 L73.0882348,96.0269232 L73.3719886,96.2672862 C73.6688199,95.7687849 73.9669422,95.2680122 74.2663359,94.7650006 L96.3152844,19.0169462 C99.0952554,9.87865974 101.036336,4.08662719 102.138525,1.64084856 Z M160.183745,116.392821 C159.439598,116.762642 158.68509,117.1371 157.920198,117.516165 C150.761798,121.06372 137.852633,127.11258 119.192703,135.662744 C146.4872,188.130086 159.88059,214.973113 159.372874,216.191824 L159.263767,216.163096 C158.764493,212.865624 201.354389,97.7117325 201.354389,96.0285372 C201.354389,95.9492101 201.227089,95.9477273 200.971409,96.0225342 C199.441021,97.4189149 185.845132,104.209011 160.183745,116.392821 Z M102.821728,0.418594665 C102.649324,0.605304595 102.42159,1.01272256 102.138525,1.64084856 C101.120612,7.63729252 91.9291956,38.5118092 74.5642755,94.2643986 C74.4648228,94.4315116 74.3655096,94.5983789 74.2663359,94.7650006 L73.9586789,95.8219409 L108.598248,126.106853 L117.028705,133.24815 L117.218848,133.643728 L119.409103,135.558639 C135.326195,128.13043 148.917742,121.741824 160.183745,116.392821 C185.297852,103.911794 198.610008,96.7134333 200.971409,96.0225342 C201.068466,95.9339757 201.116995,95.8671113 201.116995,95.8219409 C201.116995,95.703557 200.692829,95.2214289 199.8437,94.3624763 L194.700139,89.382098 C183.333011,78.5568219 156.842504,53.7747515 115.059993,12.2685923 L102.821728,0.418594665 Z" id="Path-5" stroke="#000000" stroke-width="6"></path>
                </g>
            </g>
        </g>
    </g>
</svg>